<svg xmlns="http://www.w3.org/2000/svg" viewBox="0 0 420 96" width="420" height="96">
  <!-- StackSense primary lockup — cream theme — wordmark outlined to paths (Sora 500, no font dependency). -->
  <rect width="420" height="96" fill="#F6F2E9"/>
  <g fill="#1E4D38">
    <rect x="28" y="22" width="34" height="10" rx="5"/>
    <rect x="22" y="36" width="40" height="10" rx="5"/>
    <rect x="18" y="50" width="34" height="10" rx="5"/>
  </g>
  <path fill="#1C2A22" d="M95.720 55.720Q92.080 55.720 89.520 54.520Q86.960 53.320 85.600 51.200Q84.240 49.080 84.240 46.400L88.160 46.400Q88.160 47.720 88.860 49.040Q89.560 50.360 91.220 51.240Q92.880 52.120 95.720 52.120Q98.360 52.120 100.040 51.340Q101.720 50.560 102.520 49.300Q103.320 48.040 103.320 46.560Q103.320 44.760 101.760 43.580Q100.200 42.400 97.200 42.120L93.960 41.840Q90.080 41.520 87.760 39.440Q85.440 37.360 85.440 33.960Q85.440 31.280 86.740 29.280Q88.040 27.280 90.360 26.140Q92.680 25 95.760 25Q98.800 25 101.120 26.120Q103.440 27.240 104.740 29.260Q106.040 31.280 106.040 34.080L102.120 34.080Q102.120 32.680 101.460 31.440Q100.800 30.200 99.400 29.400Q98 28.600 95.760 28.600Q93.600 28.600 92.180 29.360Q90.760 30.120 90.060 31.340Q89.360 32.560 89.360 33.960Q89.360 35.560 90.600 36.800Q91.840 38.040 94.280 38.240L97.520 38.520Q100.520 38.760 102.700 39.780Q104.880 40.800 106.060 42.500Q107.240 44.200 107.240 46.560Q107.240 49.240 105.800 51.320Q104.360 53.400 101.760 54.560Q99.160 55.720 95.720 55.720M124.040 55.240L120.760 55.240Q118.360 55.240 116.620 54.560Q114.880 53.880 113.940 52.220Q113 50.560 113 47.720L113 27.160L116.680 27.160L116.680 48.200Q116.680 49.920 117.620 50.860Q118.560 51.800 120.280 51.800L124.040 51.800L124.040 55.240M124.040 36.520L109.320 36.520L109.320 33.640L124.040 33.640L124.040 36.520M144.640 55L141.600 55L141.600 48.600L140.960 48.600L140.960 41.200Q140.960 39 139.820 37.880Q138.680 36.760 136.480 36.760Q135.240 36.760 133.920 36.800Q132.600 36.840 131.400 36.880Q130.200 36.920 129.320 37L129.320 33.640Q130.200 33.560 131.180 33.500Q132.160 33.440 133.200 33.420Q134.240 33.400 135.200 33.400Q138.480 33.400 140.560 34.180Q142.640 34.960 143.640 36.720Q144.640 38.480 144.640 41.480L144.640 55M134.600 55.560Q132.200 55.560 130.460 54.740Q128.720 53.920 127.780 52.360Q126.840 50.800 126.840 48.600Q126.840 46.320 127.860 44.800Q128.880 43.280 130.840 42.500Q132.800 41.720 135.560 41.720L141.360 41.720L141.360 44.600L135.400 44.600Q133.080 44.600 131.840 45.720Q130.600 46.840 130.600 48.600Q130.600 50.360 131.840 51.440Q133.080 52.520 135.400 52.520Q136.760 52.520 138 52.020Q139.240 51.520 140.060 50.340Q140.880 49.160 140.960 47.080L142 48.600Q141.800 50.880 140.900 52.420Q140 53.960 138.420 54.760Q136.840 55.560 134.600 55.560M160.040 55.720Q157.280 55.720 155.260 54.760Q153.240 53.800 151.920 52.180Q150.600 50.560 149.940 48.600Q149.280 46.640 149.280 44.680L149.280 43.960Q149.280 41.920 149.940 39.960Q150.600 38 151.940 36.420Q153.280 34.840 155.280 33.880Q157.280 32.920 159.960 32.920Q162.640 32.920 164.780 33.920Q166.920 34.920 168.220 36.740Q169.520 38.560 169.680 41.040L166 41.040Q165.720 39.040 164.160 37.700Q162.600 36.360 159.960 36.360Q157.680 36.360 156.160 37.400Q154.640 38.440 153.880 40.240Q153.120 42.040 153.120 44.320Q153.120 46.520 153.880 48.340Q154.640 50.160 156.180 51.220Q157.720 52.280 160.040 52.280Q161.840 52.280 163.160 51.640Q164.480 51 165.280 49.920Q166.080 48.840 166.240 47.480L169.920 47.480Q169.800 50 168.460 51.840Q167.120 53.680 164.940 54.700Q162.760 55.720 160.040 55.720M193.480 55L189.040 55L181 45.040L177.480 45.040L187.280 33.640L191.320 33.640L182.440 43.920L182.720 41.880L193.480 55M178.160 55L174.320 55L174.320 25.800L178.160 25.800L178.160 55M206.480 55.720Q202.840 55.720 200.280 54.520Q197.720 53.320 196.360 51.200Q195 49.080 195 46.400L198.920 46.400Q198.920 47.720 199.620 49.040Q200.320 50.360 201.980 51.240Q203.640 52.120 206.480 52.120Q209.120 52.120 210.800 51.340Q212.480 50.560 213.280 49.300Q214.080 48.040 214.080 46.560Q214.080 44.760 212.520 43.580Q210.960 42.400 207.960 42.120L204.720 41.840Q200.840 41.520 198.520 39.440Q196.200 37.360 196.200 33.960Q196.200 31.280 197.500 29.280Q198.800 27.280 201.120 26.140Q203.440 25 206.520 25Q209.560 25 211.880 26.120Q214.200 27.240 215.500 29.260Q216.800 31.280 216.800 34.080L212.880 34.080Q212.880 32.680 212.220 31.440Q211.560 30.200 210.160 29.400Q208.760 28.600 206.520 28.600Q204.360 28.600 202.940 29.360Q201.520 30.120 200.820 31.340Q200.120 32.560 200.120 33.960Q200.120 35.560 201.360 36.800Q202.600 38.040 205.040 38.240L208.280 38.520Q211.280 38.760 213.460 39.780Q215.640 40.800 216.820 42.500Q218 44.200 218 46.560Q218 49.240 216.560 51.320Q215.120 53.400 212.520 54.560Q209.920 55.720 206.480 55.720M232.280 55.720Q229.480 55.720 227.440 54.760Q225.400 53.800 224.120 52.220Q222.840 50.640 222.220 48.680Q221.600 46.720 221.600 44.680L221.600 43.960Q221.600 41.880 222.220 39.920Q222.840 37.960 224.120 36.380Q225.400 34.800 227.380 33.860Q229.360 32.920 232.040 32.920Q235.520 32.920 237.780 34.420Q240.040 35.920 241.140 38.280Q242.240 40.640 242.240 43.320L242.240 45.040L223.280 45.040L223.280 42.160L239.440 42.160L238.560 43.720Q238.560 41.440 237.840 39.780Q237.120 38.120 235.680 37.200Q234.240 36.280 232.040 36.280Q229.760 36.280 228.260 37.320Q226.760 38.360 226.020 40.160Q225.280 41.960 225.280 44.320Q225.280 46.600 226.020 48.420Q226.760 50.240 228.320 51.300Q229.880 52.360 232.280 52.360Q234.800 52.360 236.380 51.240Q237.960 50.120 238.280 48.640L241.880 48.640Q241.440 50.840 240.120 52.440Q238.800 54.040 236.800 54.880Q234.800 55.720 232.280 55.720M250.720 55L246.880 55L246.880 33.640L249.920 33.640L249.920 42.800L249.440 42.800Q249.440 39.640 250.300 37.460Q251.160 35.280 252.920 34.140Q254.680 33 257.360 33L257.520 33Q261.560 33 263.500 35.520Q265.440 38.040 265.440 42.800L265.440 55L261.600 55L261.600 42Q261.600 39.520 260.200 38.020Q258.800 36.520 256.360 36.520Q253.840 36.520 252.280 38.080Q250.720 39.640 250.720 42.240L250.720 55M278.680 55.640Q274.480 55.640 272.180 53.840Q269.880 52.040 269.800 48.920L273.400 48.920Q273.480 50.160 274.660 51.260Q275.840 52.360 278.680 52.360Q281.240 52.360 282.600 51.340Q283.960 50.320 283.960 48.840Q283.960 47.520 282.960 46.780Q281.960 46.040 279.720 45.800L277.400 45.560Q274.360 45.240 272.440 43.740Q270.520 42.240 270.520 39.520Q270.520 37.480 271.560 36.020Q272.600 34.560 274.440 33.780Q276.280 33 278.680 33Q282.280 33 284.520 34.600Q286.760 36.200 286.840 39.360L283.240 39.360Q283.200 38.080 282.060 37.180Q280.920 36.280 278.680 36.280Q276.440 36.280 275.280 37.200Q274.120 38.120 274.120 39.520Q274.120 40.720 274.940 41.440Q275.760 42.160 277.640 42.360L279.960 42.600Q283.400 42.960 285.480 44.500Q287.560 46.040 287.560 48.840Q287.560 50.840 286.420 52.380Q285.280 53.920 283.280 54.780Q281.280 55.640 278.680 55.640M301.400 55.720Q298.600 55.720 296.560 54.760Q294.520 53.800 293.240 52.220Q291.960 50.640 291.340 48.680Q290.720 46.720 290.720 44.680L290.720 43.960Q290.720 41.880 291.340 39.920Q291.960 37.960 293.240 36.380Q294.520 34.800 296.500 33.860Q298.480 32.920 301.160 32.920Q304.640 32.920 306.900 34.420Q309.160 35.920 310.260 38.280Q311.360 40.640 311.360 43.320L311.360 45.040L292.400 45.040L292.400 42.160L308.560 42.160L307.680 43.720Q307.680 41.440 306.960 39.780Q306.240 38.120 304.800 37.200Q303.360 36.280 301.160 36.280Q298.880 36.280 297.380 37.320Q295.880 38.360 295.140 40.160Q294.400 41.960 294.400 44.320Q294.400 46.600 295.140 48.420Q295.880 50.240 297.440 51.300Q299 52.360 301.400 52.360Q303.920 52.360 305.500 51.240Q307.080 50.120 307.400 48.640L311 48.640Q310.560 50.840 309.240 52.440Q307.920 54.040 305.920 54.880Q303.920 55.720 301.400 55.720"/>
</svg>
